<?xml version="1.0" standalone="no"?>
<!DOCTYPE svg PUBLIC "-//W3C//DTD SVG 20010904//EN"
 "http://www.w3.org/TR/2001/REC-SVG-20010904/DTD/svg10.dtd">
<svg version="1.0" xmlns="http://www.w3.org/2000/svg"
 width="700.000000pt" height="700.000000pt" viewBox="0 0 700.000000 700.000000"
 preserveAspectRatio="xMidYMid meet">
<metadata>
Created by potrace 1.11, written by Peter Selinger 2001-2013
</metadata>
<g transform="translate(0.000000,700.000000) scale(0.100000,-0.100000)"
fill="#000000" stroke="none">
<path d="M2532 6700 c-3 -42 33 -129 72 -175 19 -22 35 -44 35 -48 1 -4 -34
-34 -76 -66 -115 -87 -196 -182 -265 -311 -34 -63 -85 -198 -95 -249 -2 -14
-6 -28 -9 -32 -2 -4 -11 -52 -19 -106 -14 -95 -14 -372 0 -468 7 -53 34 -194
41 -222 5 -19 2 -22 -23 -21 -81 2 -132 -36 -154 -115 -15 -55 -5 -236 17
-309 3 -10 7 -30 10 -45 10 -58 66 -238 94 -304 57 -135 121 -199 176 -179 21
8 23 4 40 -68 10 -42 19 -82 20 -89 10 -51 64 -195 103 -273 124 -250 291
-421 504 -519 114 -52 139 -62 237 -87 182 -47 399 -42 573 12 417 132 697
467 803 961 12 56 21 80 28 74 79 -60 170 57 251 321 25 85 29 101 41 162 2
16 7 32 9 36 18 29 30 256 16 307 -22 79 -76 120 -154 114 -16 -1 -26 2 -24 6
3 5 8 26 11 48 4 22 9 48 12 57 27 89 52 328 50 488 -3 227 -41 360 -137 486
-38 49 -144 134 -169 134 -6 0 -23 6 -38 14 -24 12 -86 24 -134 25 -10 1 -21
15 -28 39 -43 132 -198 290 -358 363 -145 66 -262 81 -427 53 -88 -14 -165
-18 -385 -18 -272 0 -408 6 -610 29 -33 4 -36 2 -38 -25z"/>
<path d="M4427 2932 c-9 -26 -33 -103 -55 -172 -22 -69 -61 -192 -87 -275 -26
-82 -56 -177 -67 -210 -11 -33 -28 -87 -38 -120 -16 -53 -156 -495 -242 -765
-16 -52 -37 -119 -46 -148 -10 -35 -18 -49 -23 -40 -4 7 -33 85 -64 173 -31
88 -79 224 -107 303 -48 133 -50 143 -34 160 9 10 16 21 16 24 0 3 16 30 36
59 79 116 143 279 146 374 5 178 -134 277 -380 271 -207 -5 -321 -80 -340
-223 -16 -115 33 -254 155 -442 l54 -84 -86 -246 c-48 -135 -97 -275 -109
-310 -13 -35 -26 -59 -30 -53 -11 19 -106 309 -281 867 -31 99 -63 198 -70
220 -7 22 -57 180 -110 350 -54 171 -101 314 -106 319 -5 6 -30 -5 -61 -26
-134 -88 -411 -236 -578 -308 -41 -18 -88 -38 -105 -46 -31 -14 -171 -66 -240
-89 -22 -8 -102 -32 -178 -55 -180 -53 -255 -95 -340 -190 -101 -113 -170
-283 -193 -480 -9 -78 -9 -442 1 -555 3 -44 8 -100 10 -125 5 -57 21 -137 33
-170 6 -17 37 -40 93 -71 291 -162 715 -321 1099 -413 272 -65 460 -98 715
-126 55 -6 111 -13 125 -15 130 -19 774 -27 970 -12 122 10 208 17 240 22 14
2 50 6 80 10 84 8 171 21 220 30 13 3 42 7 65 11 22 3 83 14 135 25 52 11 109
22 125 25 17 2 53 11 80 19 28 8 61 16 75 19 44 9 63 14 207 55 78 23 157 48
175 55 18 8 36 15 40 15 21 4 155 53 268 98 150 61 450 213 464 236 38 61 58
248 61 574 2 351 -34 529 -144 695 -98 147 -186 207 -397 268 -386 112 -824
310 -1106 501 l-56 39 -15 -48z"/>
</g>
</svg>
