<?xml version="1.0" encoding="UTF-8" standalone="no"?>
<!-- Created with Inkscape (http://www.inkscape.org/) -->

<svg
   xmlns:dc="http://purl.org/dc/elements/1.1/"
   xmlns:cc="http://creativecommons.org/ns#"
   xmlns:rdf="http://www.w3.org/1999/02/22-rdf-syntax-ns#"
   xmlns:svg="http://www.w3.org/2000/svg"
   xmlns="http://www.w3.org/2000/svg"
   xmlns:xlink="http://www.w3.org/1999/xlink"
   version="1.1"
   width="300"
   height="175"
   viewBox="0 0 84.666667 49.38889"
   id="svg2"
   xml:space="preserve"
   style="fill-rule:evenodd"><metadata
   id="metadata40"><rdf:RDF><cc:Work
       rdf:about=""><dc:format>image/svg+xml</dc:format><dc:type
         rdf:resource="http://purl.org/dc/dcmitype/StillImage" /><dc:title></dc:title></cc:Work></rdf:RDF></metadata>
 <defs
   id="defs4"><linearGradient
     id="linearGradient4115"><stop
       id="stop4117"
       style="stop-color:#004274;stop-opacity:1"
       offset="0" /><stop
       id="stop4119"
       style="stop-color:#0070b9;stop-opacity:1"
       offset="1" /></linearGradient><linearGradient
     id="linearGradient4107"><stop
       id="stop4109"
       style="stop-color:#bd141a;stop-opacity:1"
       offset="0" /><stop
       id="stop4111"
       style="stop-color:#ea1b23;stop-opacity:1"
       offset="1" /></linearGradient><linearGradient
     id="linearGradient4099"><stop
       id="stop4101"
       style="stop-color:#bd141a;stop-opacity:1"
       offset="0" /><stop
       id="stop4103"
       style="stop-color:#ea1b23;stop-opacity:1"
       offset="1" /></linearGradient><linearGradient
     id="linearGradient4073"><stop
       id="stop4075"
       style="stop-color:#910405;stop-opacity:1"
       offset="0" /><stop
       id="stop4077"
       style="stop-color:#b31116;stop-opacity:1"
       offset="1" /></linearGradient><linearGradient
     id="linearGradient4067"><stop
       id="stop4069"
       style="stop-color:#cf171f;stop-opacity:1"
       offset="0" /><stop
       id="stop4071"
       style="stop-color:#be141b;stop-opacity:1"
       offset="1" /></linearGradient><linearGradient
     id="linearGradient4061"><stop
       id="stop4063"
       style="stop-color:#c9161e;stop-opacity:1"
       offset="0" /><stop
       id="stop4065"
       style="stop-color:#d3181f;stop-opacity:1"
       offset="1" /></linearGradient><linearGradient
     id="linearGradient4055"><stop
       id="stop4057"
       style="stop-color:#dc1921;stop-opacity:0.99946576"
       offset="0" /><stop
       id="stop4059"
       style="stop-color:#920506;stop-opacity:1"
       offset="1" /></linearGradient><linearGradient
     id="linearGradient3956"><stop
       id="stop3958"
       style="stop-color:#b71218;stop-opacity:1"
       offset="0" /><stop
       id="stop3960"
       style="stop-color:#9a080c;stop-opacity:1"
       offset="1" /></linearGradient><linearGradient
     id="linearGradient3948"><stop
       id="stop3950"
       style="stop-color:#910405;stop-opacity:1"
       offset="0" /><stop
       id="stop3952"
       style="stop-color:#b31016;stop-opacity:1"
       offset="1" /></linearGradient><linearGradient
     id="linearGradient3940"><stop
       id="stop3942"
       style="stop-color:#d81921;stop-opacity:1"
       offset="0" /><stop
       id="stop3944"
       style="stop-color:#b61218;stop-opacity:1"
       offset="1" /></linearGradient><linearGradient
     id="linearGradient3932"><stop
       id="stop3934"
       style="stop-color:#cf171f;stop-opacity:1"
       offset="0" /><stop
       id="stop3936"
       style="stop-color:#c0141b;stop-opacity:1"
       offset="1" /></linearGradient><linearGradient
     id="linearGradient3924"><stop
       id="stop3926"
       style="stop-color:#cc181f;stop-opacity:1"
       offset="0" /><stop
       id="stop3928"
       style="stop-color:#d3181f;stop-opacity:1"
       offset="1" /></linearGradient><linearGradient
     id="linearGradient3916"><stop
       id="stop3918"
       style="stop-color:#930507;stop-opacity:1"
       offset="0" /><stop
       id="stop3920"
       style="stop-color:#ae1015;stop-opacity:1"
       offset="1" /></linearGradient><linearGradient
     id="linearGradient3908"><stop
       id="stop3910"
       style="stop-color:#db1921;stop-opacity:1"
       offset="0" /><stop
       id="stop3912"
       style="stop-color:#920506;stop-opacity:1"
       offset="1" /></linearGradient><linearGradient
     id="linearGradient3900"><stop
       id="stop3902"
       style="stop-color:#940608;stop-opacity:1"
       offset="0" /><stop
       id="stop3904"
       style="stop-color:#b21016;stop-opacity:1"
       offset="1" /></linearGradient><linearGradient
     id="linearGradient3892"><stop
       id="stop3894"
       style="stop-color:#bd1419;stop-opacity:1"
       offset="0" /><stop
       id="stop3896"
       style="stop-color:#eb151f;stop-opacity:1"
       offset="1" /></linearGradient><linearGradient
     id="linearGradient3884"><stop
       id="stop3886"
       style="stop-color:#c0151d;stop-opacity:1"
       offset="0" /><stop
       id="stop3888"
       style="stop-color:#ea1b23;stop-opacity:1"
       offset="1" /></linearGradient><linearGradient
     id="linearGradient3862"><stop
       id="stop3864"
       style="stop-color:#004274;stop-opacity:1"
       offset="0" /><stop
       id="stop3866"
       style="stop-color:#0070ba;stop-opacity:1"
       offset="1" /></linearGradient><style
     type="text/css"
     id="style6" /><linearGradient
     x1="101.10068"
     y1="138.09599"
     x2="130.36176"
     y2="130.25119"
     id="linearGradient3149"
     xlink:href="#linearGradient3884"
     gradientUnits="userSpaceOnUse"
     gradientTransform="matrix(0.93020685,0,0,0.93020685,-38.007848,-102.50008)" /><linearGradient
     x1="57.86409"
     y1="150.64058"
     x2="73.319588"
     y2="150.42856"
     id="linearGradient3151"
     xlink:href="#linearGradient3956"
     gradientUnits="userSpaceOnUse"
     gradientTransform="matrix(0.93020685,0,0,0.93020685,-38.007848,-102.50008)" /><linearGradient
     x1="62.857506"
     y1="162.71092"
     x2="92.330605"
     y2="155.07814"
     id="linearGradient3153"
     xlink:href="#linearGradient3892"
     gradientUnits="userSpaceOnUse"
     gradientTransform="matrix(0.93020685,0,0,0.93020685,-38.007848,-102.67788)" /><linearGradient
     x1="84.556725"
     y1="131.73071"
     x2="84.104652"
     y2="138.72742"
     id="linearGradient3155"
     xlink:href="#linearGradient3940"
     gradientUnits="userSpaceOnUse"
     gradientTransform="matrix(0.93020685,0,0,0.93020685,-38.007848,-102.50008)" /><linearGradient
     x1="80.952354"
     y1="134.63805"
     x2="78.592873"
     y2="131.66974"
     id="linearGradient3157"
     xlink:href="#linearGradient3932"
     gradientUnits="userSpaceOnUse"
     gradientTransform="matrix(0.93020685,0,0,0.93020685,-38.007848,-102.50008)" /><linearGradient
     x1="57.854115"
     y1="138.87848"
     x2="66.110863"
     y2="131.88177"
     id="linearGradient3159"
     xlink:href="#linearGradient3908"
     gradientUnits="userSpaceOnUse"
     gradientTransform="matrix(0.93020685,0,0,0.93020685,-38.007848,-102.50008)" /><linearGradient
     x1="52.775578"
     y1="150.42856"
     x2="68.075989"
     y2="146.32883"
     id="linearGradient3161"
     xlink:href="#linearGradient3948"
     gradientUnits="userSpaceOnUse"
     gradientTransform="matrix(0.93020685,0,0,0.93020685,-38.007848,-102.50008)" /><linearGradient
     x1="58.490177"
     y1="142.11977"
     x2="61.87043"
     y2="136.18315"
     id="linearGradient3163"
     xlink:href="#linearGradient3916"
     gradientUnits="userSpaceOnUse"
     gradientTransform="matrix(0.93020685,0,0,0.93020685,-38.007848,-102.50008)" /><linearGradient
     x1="63.174526"
     y1="124.53628"
     x2="72.259483"
     y2="134.07724"
     id="linearGradient3165"
     xlink:href="#linearGradient3900"
     gradientUnits="userSpaceOnUse"
     gradientTransform="matrix(0.93020685,0,0,0.93020685,-38.007848,-102.50008)" /><linearGradient
     x1="70.449318"
     y1="128.35266"
     x2="74.331772"
     y2="125.59638"
     id="linearGradient3167"
     xlink:href="#linearGradient3924"
     gradientUnits="userSpaceOnUse"
     gradientTransform="matrix(0.93020685,0,0,0.93020685,-38.007848,-102.50008)" /><linearGradient
     x1="75.944115"
     y1="165.04321"
     x2="147.95224"
     y2="145.9651"
     id="linearGradient3169"
     xlink:href="#linearGradient3862"
     gradientUnits="userSpaceOnUse"
     gradientTransform="matrix(0.73779068,0,0,0.73779068,-30.553083,-80.970689)" /><style
     type="text/css"
     id="style3201" /><linearGradient
     x1="70.449318"
     y1="128.35266"
     x2="74.331772"
     y2="125.59638"
     id="linearGradient3241"
     xlink:href="#linearGradient4061"
     gradientUnits="userSpaceOnUse"
     gradientTransform="matrix(2.012607,0,0,2.012607,-124.05702,-128.90603)" /><linearGradient
     x1="63.174526"
     y1="124.53628"
     x2="72.259483"
     y2="134.07724"
     id="linearGradient3244"
     xlink:href="#linearGradient3900"
     gradientUnits="userSpaceOnUse"
     gradientTransform="matrix(2.012607,0,0,2.012607,-124.05702,-128.90603)" /><linearGradient
     x1="58.490177"
     y1="142.11977"
     x2="61.87043"
     y2="136.18315"
     id="linearGradient3247"
     xlink:href="#linearGradient3916"
     gradientUnits="userSpaceOnUse"
     gradientTransform="matrix(2.012607,0,0,2.012607,-124.05702,-128.90603)" /><linearGradient
     x1="52.775578"
     y1="150.42856"
     x2="68.075989"
     y2="146.32883"
     id="linearGradient3250"
     xlink:href="#linearGradient4073"
     gradientUnits="userSpaceOnUse"
     gradientTransform="matrix(2.012607,0,0,2.012607,-124.05702,-128.90603)" /><linearGradient
     x1="55.283485"
     y1="139.86719"
     x2="66.110863"
     y2="131.88177"
     id="linearGradient3253"
     xlink:href="#linearGradient4055"
     gradientUnits="userSpaceOnUse"
     gradientTransform="matrix(2.012607,0,0,2.012607,-124.05702,-128.90603)" /><linearGradient
     x1="80.952354"
     y1="134.63805"
     x2="78.592873"
     y2="131.66974"
     id="linearGradient3256"
     xlink:href="#linearGradient4067"
     gradientUnits="userSpaceOnUse"
     gradientTransform="matrix(2.012607,0,0,2.012607,-124.05702,-128.90603)" /><linearGradient
     x1="84.556725"
     y1="131.73071"
     x2="84.104652"
     y2="138.72742"
     id="linearGradient3259"
     xlink:href="#linearGradient3940"
     gradientUnits="userSpaceOnUse"
     gradientTransform="matrix(2.012607,0,0,2.012607,-124.05702,-128.90603)" /><linearGradient
     x1="57.86409"
     y1="150.64058"
     x2="73.319588"
     y2="150.42856"
     id="linearGradient3269"
     xlink:href="#linearGradient3956"
     gradientUnits="userSpaceOnUse"
     gradientTransform="matrix(2.012607,0,0,2.012607,-124.05702,-128.90603)" /><linearGradient
     x1="70.928192"
     y1="190.08836"
     x2="175.26669"
     y2="158.49892"
     id="linearGradient4173"
     xlink:href="#linearGradient4115"
     gradientUnits="userSpaceOnUse" /><linearGradient
     x1="125.85397"
     y1="156.88013"
     x2="180.72665"
     y2="140.78401"
     id="linearGradient4175"
     xlink:href="#linearGradient4099"
     gradientUnits="userSpaceOnUse" /><linearGradient
     x1="65.032227"
     y1="200.09264"
     x2="119.86272"
     y2="200.09264"
     id="linearGradient4177"
     xlink:href="#linearGradient4107"
     gradientUnits="userSpaceOnUse" /><linearGradient
     x1="57.86409"
     y1="150.64058"
     x2="73.319588"
     y2="150.42856"
     id="linearGradient4204"
     xlink:href="#linearGradient3956"
     gradientUnits="userSpaceOnUse"
     gradientTransform="matrix(2.012607,0,0,2.012607,-124.05702,-128.90603)" /><linearGradient
     x1="84.556725"
     y1="131.73071"
     x2="84.104652"
     y2="138.72742"
     id="linearGradient4206"
     xlink:href="#linearGradient3940"
     gradientUnits="userSpaceOnUse"
     gradientTransform="matrix(2.012607,0,0,2.012607,-124.05702,-128.90603)" /><linearGradient
     x1="80.952354"
     y1="134.63805"
     x2="78.592873"
     y2="131.66974"
     id="linearGradient4208"
     xlink:href="#linearGradient4067"
     gradientUnits="userSpaceOnUse"
     gradientTransform="matrix(2.012607,0,0,2.012607,-124.05702,-128.90603)" /><linearGradient
     x1="55.283485"
     y1="139.86719"
     x2="66.110863"
     y2="131.88177"
     id="linearGradient4210"
     xlink:href="#linearGradient4055"
     gradientUnits="userSpaceOnUse"
     gradientTransform="matrix(2.012607,0,0,2.012607,-124.05702,-128.90603)" /><linearGradient
     x1="52.775578"
     y1="150.42856"
     x2="68.075989"
     y2="146.32883"
     id="linearGradient4212"
     xlink:href="#linearGradient4073"
     gradientUnits="userSpaceOnUse"
     gradientTransform="matrix(2.012607,0,0,2.012607,-124.05702,-128.90603)" /><linearGradient
     x1="58.490177"
     y1="142.11977"
     x2="61.87043"
     y2="136.18315"
     id="linearGradient4214"
     xlink:href="#linearGradient3916"
     gradientUnits="userSpaceOnUse"
     gradientTransform="matrix(2.012607,0,0,2.012607,-124.05702,-128.90603)" /><linearGradient
     x1="63.174526"
     y1="124.53628"
     x2="72.259483"
     y2="134.07724"
     id="linearGradient4216"
     xlink:href="#linearGradient3900"
     gradientUnits="userSpaceOnUse"
     gradientTransform="matrix(2.012607,0,0,2.012607,-124.05702,-128.90603)" /><linearGradient
     x1="70.449318"
     y1="128.35266"
     x2="74.331772"
     y2="125.59638"
     id="linearGradient4218"
     xlink:href="#linearGradient4061"
     gradientUnits="userSpaceOnUse"
     gradientTransform="matrix(2.012607,0,0,2.012607,-124.05702,-128.90603)" /><linearGradient
     x1="70.928192"
     y1="190.08836"
     x2="175.26669"
     y2="158.49892"
     id="linearGradient4220"
     xlink:href="#linearGradient4115"
     gradientUnits="userSpaceOnUse" /><linearGradient
     x1="125.85397"
     y1="156.88013"
     x2="180.72665"
     y2="140.78401"
     id="linearGradient4222"
     xlink:href="#linearGradient4099"
     gradientUnits="userSpaceOnUse" /><linearGradient
     x1="65.032227"
     y1="200.09264"
     x2="119.86272"
     y2="200.09264"
     id="linearGradient4224"
     xlink:href="#linearGradient4107"
     gradientUnits="userSpaceOnUse" /><linearGradient
     x1="70.449318"
     y1="128.35266"
     x2="74.331772"
     y2="125.59638"
     id="linearGradient4239"
     xlink:href="#linearGradient4061"
     gradientUnits="userSpaceOnUse"
     gradientTransform="matrix(0.92926072,0,0,0.92926072,-37.967731,-102.44994)" /><linearGradient
     x1="63.174526"
     y1="124.53628"
     x2="72.259483"
     y2="134.07724"
     id="linearGradient4242"
     xlink:href="#linearGradient3900"
     gradientUnits="userSpaceOnUse"
     gradientTransform="matrix(0.92926072,0,0,0.92926072,-37.967731,-102.44994)" /><linearGradient
     x1="58.490177"
     y1="142.11977"
     x2="61.87043"
     y2="136.18315"
     id="linearGradient4245"
     xlink:href="#linearGradient3916"
     gradientUnits="userSpaceOnUse"
     gradientTransform="matrix(0.92926072,0,0,0.92926072,-37.967731,-102.44994)" /><linearGradient
     x1="52.775578"
     y1="150.42856"
     x2="68.075989"
     y2="146.32883"
     id="linearGradient4248"
     xlink:href="#linearGradient4073"
     gradientUnits="userSpaceOnUse"
     gradientTransform="matrix(0.92926072,0,0,0.92926072,-37.967731,-102.44994)" /><linearGradient
     x1="55.283485"
     y1="139.86719"
     x2="66.110863"
     y2="131.88177"
     id="linearGradient4251"
     xlink:href="#linearGradient4055"
     gradientUnits="userSpaceOnUse"
     gradientTransform="matrix(0.92926072,0,0,0.92926072,-37.967731,-102.44994)" /><linearGradient
     x1="80.952354"
     y1="134.63805"
     x2="78.592873"
     y2="131.66974"
     id="linearGradient4254"
     xlink:href="#linearGradient4067"
     gradientUnits="userSpaceOnUse"
     gradientTransform="matrix(0.92926072,0,0,0.92926072,-37.967731,-102.44994)" /><linearGradient
     x1="84.556725"
     y1="131.73071"
     x2="84.104652"
     y2="138.72742"
     id="linearGradient4257"
     xlink:href="#linearGradient3940"
     gradientUnits="userSpaceOnUse"
     gradientTransform="matrix(0.92926072,0,0,0.92926072,-37.967731,-102.44994)" /><linearGradient
     x1="57.86409"
     y1="150.64058"
     x2="73.319588"
     y2="150.42856"
     id="linearGradient4262"
     xlink:href="#linearGradient3956"
     gradientUnits="userSpaceOnUse"
     gradientTransform="matrix(0.92926072,0,0,0.92926072,-37.967731,-102.44994)" /><linearGradient
     x1="70.928192"
     y1="190.08836"
     x2="175.26669"
     y2="158.49892"
     id="linearGradient4265"
     xlink:href="#linearGradient4115"
     gradientUnits="userSpaceOnUse" /><linearGradient
     x1="125.85397"
     y1="156.88013"
     x2="180.72665"
     y2="140.78401"
     id="linearGradient4267"
     xlink:href="#linearGradient4099"
     gradientUnits="userSpaceOnUse" /><linearGradient
     x1="65.032227"
     y1="200.09264"
     x2="119.86272"
     y2="200.09264"
     id="linearGradient4269"
     xlink:href="#linearGradient4107"
     gradientUnits="userSpaceOnUse" /><linearGradient
     x1="70.928192"
     y1="190.08836"
     x2="175.26669"
     y2="158.49892"
     id="linearGradient4282"
     xlink:href="#linearGradient4115"
     gradientUnits="userSpaceOnUse" /><linearGradient
     x1="125.85397"
     y1="156.88013"
     x2="180.72665"
     y2="140.78401"
     id="linearGradient4284"
     xlink:href="#linearGradient4099"
     gradientUnits="userSpaceOnUse" /><linearGradient
     x1="65.032227"
     y1="200.09264"
     x2="119.86272"
     y2="200.09264"
     id="linearGradient4286"
     xlink:href="#linearGradient4107"
     gradientUnits="userSpaceOnUse" /><linearGradient
     x1="70.928192"
     y1="190.08836"
     x2="175.26669"
     y2="158.49892"
     id="linearGradient4297"
     xlink:href="#linearGradient4115"
     gradientUnits="userSpaceOnUse" /><linearGradient
     x1="125.85397"
     y1="156.88013"
     x2="180.72665"
     y2="140.78401"
     id="linearGradient4299"
     xlink:href="#linearGradient4099"
     gradientUnits="userSpaceOnUse" /><linearGradient
     x1="65.032227"
     y1="200.09264"
     x2="119.86272"
     y2="200.09264"
     id="linearGradient4301"
     xlink:href="#linearGradient4107"
     gradientUnits="userSpaceOnUse" /><linearGradient
     x1="70.928192"
     y1="190.08836"
     x2="175.26669"
     y2="158.49892"
     id="linearGradient4310"
     xlink:href="#linearGradient4115"
     gradientUnits="userSpaceOnUse" /><linearGradient
     x1="125.85397"
     y1="156.88013"
     x2="180.72665"
     y2="140.78401"
     id="linearGradient4312"
     xlink:href="#linearGradient4099"
     gradientUnits="userSpaceOnUse" /><linearGradient
     x1="65.032227"
     y1="200.09264"
     x2="119.86272"
     y2="200.09264"
     id="linearGradient4314"
     xlink:href="#linearGradient4107"
     gradientUnits="userSpaceOnUse" /><linearGradient
     x1="65.032227"
     y1="200.09264"
     x2="119.86272"
     y2="200.09264"
     id="linearGradient4319"
     xlink:href="#linearGradient4107"
     gradientUnits="userSpaceOnUse"
     gradientTransform="matrix(0.46171991,0,-0.13838847,0.4404928,19.311865,-42.931457)" /><linearGradient
     x1="125.85397"
     y1="156.88013"
     x2="180.72665"
     y2="140.78401"
     id="linearGradient4322"
     xlink:href="#linearGradient4099"
     gradientUnits="userSpaceOnUse"
     gradientTransform="matrix(0.46171991,0,-0.13838803,0.44049294,19.311865,-42.931457)" /><linearGradient
     x1="70.928192"
     y1="190.08836"
     x2="175.26669"
     y2="158.49892"
     id="linearGradient4325"
     xlink:href="#linearGradient4115"
     gradientUnits="userSpaceOnUse"
     gradientTransform="matrix(0.46171991,0,-0.13838866,0.44049274,19.311865,-42.931457)" /></defs>
 
<path
   d="m 42.345536,48.554793 -15.635498,-11.36 -15.635499,11.36 5.972311,-18.381042 -15.6357195,-11.360005 19.3268175,0 5.97209,-18.38030468 5.972091,18.38030468 19.326677,0 -15.635581,11.360005 z"
   id="_151353856"
   style="fill:#b00f15;fill-opacity:1" /><path
   d="M 26.709963,37.194793 30.165282,26.12003 11.074539,48.554793 z"
   id="_151353808"
   style="fill:url(#linearGradient4262);fill-opacity:1" /><path
   d="m 30.165282,26.12003 12.180187,22.434763 -15.635506,-11.36 z"
   id="_151353760"
   style="fill:#9d090d;fill-opacity:1" /><path
   d="M 30.165282,26.12003 42.345469,48.554793 36.373148,30.173751 z"
   id="_151353712"
   style="fill:#b61218;fill-opacity:1" /><path
   d="m 30.165282,26.12003 6.207866,4.053721 15.635658,-11.360005 z"
   id="_151353664"
   style="fill:url(#linearGradient4257);fill-opacity:1" /><path
   d="m 52.00954,18.813746 -19.327486,0 -2.516772,7.306284 z"
   id="_151353616"
   style="fill:url(#linearGradient4254);fill-opacity:1" /><path
   d="m 1.4111305,18.813746 19.3267445,0 9.427407,7.306284 z"
   id="_151353568"
   style="fill:url(#linearGradient4251);fill-opacity:1" /><path
   d="M 17.046777,30.173751 11.074539,48.554793 30.165282,26.12003 z"
   id="_151353520"
   style="fill:url(#linearGradient4248);fill-opacity:1" /><path
   d="M 1.4111305,18.813746 17.046777,30.173751 30.165282,26.12003 z"
   id="_151353472"
   style="fill:url(#linearGradient4245);fill-opacity:1" /><path
   d="M 26.709963,0.43344132 20.737875,18.813746 30.165282,26.12003 z"
   id="_151353424"
   style="fill:url(#linearGradient4242);fill-opacity:1" /><path
   d="M 32.682054,18.813746 26.709963,0.43344132 30.165282,26.12003 z"
   id="_151353376"
   style="fill:url(#linearGradient4239);fill-opacity:1" /><path
   d="m 76.521072,29.384607 -5.547892,0 1.02162,-3.251797 9.018715,0 -4.492443,3.251797 z m -46.058602,6.657465 5.547891,0 -1.75811,5.596129 -11.482911,0 7.69313,-5.596129 z"
   id="path3205"
   style="fill:#8c0304;fill-opacity:1;fill-rule:evenodd" /><path
   d="m 30.168418,26.122057 48.372287,0 -4.896808,15.586634 -48.372286,0 z"
   id="rect3207"
   style="fill:#ffffff" /><path
   d="m 29.951751,26.811855 48.37231,0 -4.418313,14.063542 -48.37231,0 z"
   id="rect3209"
   style="fill:url(#linearGradient4325);fill-opacity:1" /><path
   d="m 57.971253,18.996749 25.284323,0 -2.241865,7.13592 -25.284323,0 z"
   id="rect3211"
   style="fill:url(#linearGradient4322);fill-opacity:1" /><path
   d="m 22.769522,41.638165 25.31633,0 -2.242993,7.139486 -25.31633,0 z"
   id="rect3213"
   style="fill:url(#linearGradient4319);fill-opacity:1" /><path
   d="m 42.701288,43.499744 c -0.610283,0 -1.250965,0.436654 -1.442356,1.045939 -0.132396,0.421435 -0.0082,0.787006 0.276989,0.979945 l -1.061638,1.355688 0.808638,0 0.92353,-1.223659 0.560833,0 -0.38444,1.223659 0.72724,0 1.062375,-3.381572 -1.471171,0 z m -0.196181,0.624541 0.743895,0 -0.274373,0.873307 -0.743895,0 c -0.218695,0 -0.325924,-0.192939 -0.249353,-0.436654 0.07816,-0.248797 0.305031,-0.436653 0.523726,-0.436653 z m -2.393339,-0.624541 -2.048548,1.970062 0.618942,-1.970062 -0.727276,0 -1.062376,3.381572 0.63066,0 2.028466,-1.954806 -0.614115,1.954806 0.732325,0 1.062375,-3.381572 -0.620453,0 z m -13.477771,0.624541 -0.745074,0 -0.274373,0.873307 0.745074,0 c 0.21361,0 0.447118,-0.192939 0.523689,-0.436654 0.07815,-0.248797 -0.03571,-0.436653 -0.249316,-0.436653 z m 0.196181,-0.624541 c 0.610319,0 0.976592,0.436654 0.785202,1.045939 -0.191428,0.60929 -0.852856,1.111974 -1.463139,1.111974 l -0.745037,0 -0.384439,1.223659 -0.727276,0 1.062375,-3.381572 1.472314,0 z m 3.168849,1.690786 c 0.06541,-0.208157 0.09739,-0.390961 0.138587,-0.538208 0.09511,-0.335098 -0.07812,-0.609286 -0.408722,-0.609286 -0.335652,0 -0.681142,0.274188 -0.796588,0.609286 -0.05137,0.147247 -0.129117,0.330051 -0.194523,0.538208 -0.06541,0.208158 -0.104097,0.396045 -0.145256,0.543292 -0.09511,0.335098 0.0797,0.604202 0.415392,0.604202 0.330566,0 0.674472,-0.269104 0.789918,-0.604202 0.05137,-0.147247 0.135786,-0.335134 0.201192,-0.543292 z m -1.192118,1.787258 c -0.752702,0 -1.171558,-0.60929 -0.937054,-1.355688 l 0.269582,-0.858088 c 0.236051,-0.751449 1.036176,-1.355651 1.788878,-1.355651 0.74758,0 1.168057,0.604202 0.931969,1.355651 L 30.590702,45.6221 c -0.234467,0.746398 -1.036177,1.355688 -1.783793,1.355688 z m 4.531981,-3.569427 c -0.752702,0 -1.51609,0.487428 -1.783793,1.355651 -0.08932,0.284359 -0.269583,0.858088 -0.269583,0.858088 -0.277542,0.883473 0.179305,1.355688 0.932007,1.355688 0.320396,0 0.789328,-0.166704 1.158402,-0.354042 l -0.161912,-0.559097 c -0.309195,0.166256 -0.651627,0.273375 -0.795519,0.273375 -0.330567,0 -0.505376,-0.269104 -0.415355,-0.604202 0.04116,-0.147247 0.07981,-0.335134 0.145219,-0.543292 0.06537,-0.208157 0.143193,-0.390961 0.194522,-0.538208 0.120531,-0.335098 0.466059,-0.609286 0.796626,-0.609286 0.149641,0 0.381417,0.0877 0.573729,0.245003 l 0.518199,-0.515469 c -0.230966,-0.187523 -0.53655,-0.364209 -0.892542,-0.364209 z m 2.842779,0 c -0.752702,0 -1.51609,0.487428 -1.783793,1.355651 -0.08932,0.284359 -0.269583,0.858088 -0.269583,0.858088 -0.277542,0.883473 0.179304,1.355688 0.932006,1.355688 0.320396,0 0.789329,-0.166704 1.158402,-0.354042 l -0.161912,-0.559097 c -0.309194,0.166256 -0.651626,0.273375 -0.795519,0.273375 -0.330567,0 -0.505376,-0.269104 -0.415355,-0.604202 0.04116,-0.147247 0.07981,-0.335134 0.145219,-0.543292 0.06537,-0.208157 0.143193,-0.390961 0.194523,-0.538208 0.120531,-0.335098 0.466058,-0.609286 0.796625,-0.609286 0.149641,0 0.381417,0.0877 0.573729,0.245003 L 37.07421,43.77257 c -0.230966,-0.187523 -0.536549,-0.364209 -0.892541,-0.364209 z"
   id="path3215"
   style="fill:#ffffff;fill-rule:evenodd" /><path
   d="m 77.975499,20.88505 c -0.610283,0 -1.250966,0.436653 -1.442358,1.045938 -0.13243,0.421435 -0.0083,0.787011 0.276991,0.979945 l -1.061638,1.355693 0.808638,0 0.923528,-1.223664 0.560832,0 -0.384437,1.223664 0.727241,0 1.062372,-3.381576 -1.471169,0 z m -0.19618,0.62454 0.743895,0 -0.274372,0.873307 -0.743896,0 c -0.218698,0 -0.325923,-0.192935 -0.249356,-0.436653 0.07815,-0.248798 0.305035,-0.436654 0.523729,-0.436654 z m -2.206407,-0.62454 -2.04855,1.970061 0.618945,-1.970061 -0.727278,0 -1.062376,3.381576 0.630658,0 2.02847,-1.954807 -0.614115,1.954807 0.732324,0 1.062376,-3.381576 -0.620454,0 z m -6.952514,0.62454 -0.745078,0 -0.274372,0.873307 0.745077,0 c 0.213611,0 0.447116,-0.192935 0.523688,-0.436653 0.07815,-0.248798 -0.03574,-0.436654 -0.249315,-0.436654 z m 0.19618,-0.62454 c 0.61032,0 0.976593,0.436653 0.785201,1.045938 -0.191425,0.60929 -0.852857,1.111974 -1.46314,1.111974 l -0.745036,0 -0.384437,1.223664 -0.727278,0 1.062376,-3.381576 1.472314,0 z m -7.655324,0.62454 -0.866157,2.757036 -0.727277,0 1.062375,-3.381576 2.624858,0 -1.062376,3.381576 -0.727276,0 0.866157,-2.757036 -1.170304,0 z m 9.062785,-0.62454 2.630898,0 -0.196217,0.62454 -0.958904,0 -0.866159,2.757036 -0.727274,0 0.866155,-2.757036 -0.944716,0 0.196217,-0.62454 z m -5.188621,3.381576 -0.03246,-0.58637 -1.229667,0 -0.400837,0.58637 -0.775363,0 2.311867,-3.381576 0.714673,0 0.187116,3.381576 -0.775326,0 z m -0.06703,-1.210911 -0.05748,-1.039456 -0.710621,1.039456 0.768104,0 z"
   id="path3217"
   style="fill:#ffffff;fill-rule:evenodd" /><path
   d="m 44.043606,35.679437 0.659641,0 3.100514,-5.517405 4.854948,0 -1.85822,5.517405 0.556322,0 -0.604821,1.795791 -7.313195,0 0.604811,-1.795791 z m 13.292875,1.795791 -2.50991,0 1.366908,-3.323086 -2.288574,3.323086 -2.569172,0 2.463031,-7.313196 2.50991,0 -1.239774,3.164781 2.161376,-3.164781 2.56924,0 -2.463035,7.313196 z m 3.38786,0 -2.509904,0 2.463044,-7.313196 2.50991,0 -0.887832,2.636176 0.980919,0 0.887846,-2.636176 2.509914,0 -2.46304,7.313196 -2.509914,0 0.970392,-2.88123 -0.980933,0 -0.970402,2.88123 z m 6.734569,0 -2.628512,0 3.510678,-7.313196 4.103171,0 -1.13873,7.313196 -2.529667,0 0.345671,-1.511662 -1.067676,0 -0.594935,1.511662 z m 2.073293,-3.307462 0.505385,-2.209943 -0.407288,0 -0.869714,2.209943 0.771617,0 z m -19.988215,-2.209943 -0.42108,0 -1.860657,3.721614 1.02831,0 1.253427,-3.721614 z m -9.601055,3.721614 0.984165,0 1.253418,-3.721614 -0.98417,0 -1.253413,3.721614 z m 4.255377,-5.517405 c 0.603334,0 0.930735,0.493597 0.727458,1.096936 l -1.724163,5.119324 c -0.203268,0.603348 -0.86314,1.096936 -1.466483,1.096936 l -3.809982,0 c -0.603268,0 -0.930734,-0.493588 -0.727464,-1.096936 l 1.724166,-5.119324 c 0.20327,-0.603339 0.863068,-1.096936 1.466485,-1.096936 l 3.809983,0 z m -11.619071,7.313196 -2.509919,0 2.46304,-7.313196 4.907068,0 c 0.603345,0 0.930143,0.493519 0.727455,1.096936 l -0.933314,2.778487 c -0.202611,0.60327 -0.862846,1.096723 -1.466047,1.096936 l -4.4e-4,0 -2.399437,0 -0.788406,2.340837 z m 2.378946,-4.136627 0.46433,-1.380778 -0.985056,0 -0.464999,1.380778 0.985725,0 z"
   id="path32"
   style="fill:#ffffff" /></svg>